<svg width="158" height="14" viewBox="0 0 158 14" fill="none" xmlns="http://www.w3.org/2000/svg">
<path d="M19.8692 14H9.03735C7.7871 13.9917 6.6123 13.8052 5.51294 13.4405C4.41359 13.0675 3.45435 12.566 2.63522 11.9361C1.82687 11.2978 1.18558 10.556 0.711348 9.71048C0.237116 8.86501 0 7.96152 0 7C0 6.03848 0.237116 5.13499 0.711348 4.28952C1.18558 3.43576 1.82687 2.6939 2.63522 2.06394C3.45435 1.4257 4.41359 0.924215 5.51294 0.559503C6.6123 0.186501 7.7871 0 9.03735 0H19.8692V2.53641H9.03735C8.23978 2.5447 7.49071 2.66903 6.79014 2.90941C6.10034 3.1415 5.49678 3.46063 4.97943 3.86679C4.46209 4.26465 4.05253 4.73298 3.75074 5.27176C3.45974 5.81054 3.31423 6.38662 3.31423 7C3.31423 7.61338 3.45974 8.18946 3.75074 8.72824C4.05253 9.26702 4.46209 9.73949 4.97943 10.1456C5.49678 10.5435 6.10034 10.8626 6.79014 11.103C7.49071 11.3351 8.23978 11.4512 9.03735 11.4512H19.8692V14Z" fill="#F0EFEF"/>
<path d="M45.3161 7C45.3161 7.96152 45.079 8.86501 44.6047 9.71048C44.1305 10.556 43.4838 11.2978 42.6647 11.9361C41.8563 12.566 40.9025 13.0675 39.8031 13.4405C38.7038 13.8052 37.529 13.9917 36.2787 14H31.1861C29.9359 13.9917 28.7611 13.8052 27.6617 13.4405C26.5624 13.0675 25.6031 12.566 24.784 11.9361C23.9756 11.2978 23.3344 10.556 22.8601 9.71048C22.3859 8.86501 22.1488 7.96152 22.1488 7C22.1488 6.03848 22.3859 5.13499 22.8601 4.28952C23.3344 3.43576 23.9756 2.6939 24.784 2.06394C25.6031 1.4257 26.5624 0.924215 27.6617 0.559503C28.7611 0.186501 29.9359 0 31.1861 0H36.2787C37.1086 0 37.9116 0.0828893 38.6876 0.248668C39.4636 0.414446 40.1857 0.650681 40.854 0.957371C41.5222 1.26406 42.1312 1.63292 42.6809 2.06394C43.2305 2.48668 43.6994 2.95915 44.0874 3.48135C44.4754 3.99526 44.7772 4.55062 44.9927 5.14742C45.2083 5.74423 45.3161 6.36175 45.3161 7ZM42.018 7C42.018 6.38662 41.8671 5.81054 41.5653 5.27176C41.2635 4.73298 40.854 4.26465 40.3366 3.86679C39.8193 3.46063 39.2103 3.1415 38.5098 2.90941C37.82 2.66903 37.0763 2.5447 36.2787 2.53641H31.1861C30.3886 2.5447 29.6395 2.66903 28.9389 2.90941C28.2491 3.1415 27.6456 3.46063 27.1282 3.86679C26.6109 4.26465 26.2013 4.73298 25.8995 5.27176C25.6085 5.81054 25.463 6.38662 25.463 7C25.463 7.61338 25.6085 8.18946 25.8995 8.72824C26.2013 9.26702 26.6109 9.73949 27.1282 10.1456C27.6456 10.5435 28.2491 10.8626 28.9389 11.103C29.6395 11.3351 30.3886 11.4512 31.1861 11.4512H36.2787C37.0763 11.4512 37.82 11.3351 38.5098 11.103C39.2103 10.8626 39.8193 10.5435 40.3366 10.1456C40.854 9.73949 41.2635 9.26702 41.5653 8.72824C41.8671 8.18946 42.018 7.61338 42.018 7Z" fill="#F0EFEF"/>
<path d="M52.2517 14H48.9375V0H66.3978C67.6481 0 68.8229 0.186501 69.9222 0.559503C71.0216 0.924215 71.9754 1.4257 72.7838 2.06394C73.6029 2.6939 74.2496 3.43576 74.7238 4.28952C75.1981 5.13499 75.4352 6.03848 75.4352 7V14H72.1209V7C72.1209 6.38662 71.9701 5.81054 71.6683 5.27176C71.3665 4.73298 70.9569 4.26465 70.4396 3.86679C69.9222 3.46063 69.3133 3.1415 68.6127 2.90941C67.9229 2.66903 67.1846 2.5447 66.3978 2.53641H63.8434V14H60.5292V2.53641H52.2517V14Z" fill="#F0EFEF"/>
<path d="M83.2277 14H79.9134V0H97.3738C98.624 0 99.7988 0.186501 100.898 0.559503C101.998 0.924215 102.951 1.4257 103.76 2.06394C104.579 2.6939 105.226 3.43576 105.7 4.28952C106.174 5.13499 106.411 6.03848 106.411 7V14H103.097V7C103.097 6.38662 102.946 5.81054 102.644 5.27176C102.342 4.73298 101.933 4.26465 101.416 3.86679C100.898 3.46063 100.289 3.1415 99.5887 2.90941C98.8989 2.66903 98.1606 2.5447 97.3738 2.53641H94.8194V14H91.5052V2.53641H83.2277V14Z" fill="#F0EFEF"/>
<path d="M132.909 7C132.909 7.96152 132.672 8.86501 132.197 9.71048C131.723 10.556 131.077 11.2978 130.257 11.9361C129.449 12.566 128.495 13.0675 127.396 13.4405C126.297 13.8052 125.122 13.9917 123.871 14H118.779C117.529 13.9917 116.354 13.8052 115.254 13.4405C114.155 13.0675 113.196 12.566 112.377 11.9361C111.568 11.2978 110.927 10.556 110.453 9.71048C109.979 8.86501 109.742 7.96152 109.742 7C109.742 6.03848 109.979 5.13499 110.453 4.28952C110.927 3.43576 111.568 2.6939 112.377 2.06394C113.196 1.4257 114.155 0.924215 115.254 0.559503C116.354 0.186501 117.529 0 118.779 0H123.871C124.701 0 125.504 0.0828893 126.28 0.248668C127.056 0.414446 127.779 0.650681 128.447 0.957371C129.115 1.26406 129.724 1.63292 130.274 2.06394C130.823 2.48668 131.292 2.95915 131.68 3.48135C132.068 3.99526 132.37 4.55062 132.585 5.14742C132.801 5.74423 132.909 6.36175 132.909 7ZM129.611 7C129.611 6.38662 129.46 5.81054 129.158 5.27176C128.856 4.73298 128.447 4.26465 127.929 3.86679C127.412 3.46063 126.803 3.1415 126.103 2.90941C125.413 2.66903 124.669 2.5447 123.871 2.53641H118.779C117.981 2.5447 117.232 2.66903 116.532 2.90941C115.842 3.1415 115.238 3.46063 114.721 3.86679C114.204 4.26465 113.794 4.73298 113.492 5.27176C113.201 5.81054 113.056 6.38662 113.056 7C113.056 7.61338 113.201 8.18946 113.492 8.72824C113.794 9.26702 114.204 9.73949 114.721 10.1456C115.238 10.5435 115.842 10.8626 116.532 11.103C117.232 11.3351 117.981 11.4512 118.779 11.4512H123.871C124.669 11.4512 125.413 11.3351 126.103 11.103C126.803 10.8626 127.412 10.5435 127.929 10.1456C128.447 9.73949 128.856 9.26702 129.158 8.72824C129.46 8.18946 129.611 7.61338 129.611 7Z" fill="#F0EFEF"/>
<path d="M139.844 14H136.53V0H148.946C150.197 0 151.372 0.186501 152.471 0.559503C153.57 0.924215 154.529 1.4257 155.349 2.06394C156.168 2.6939 156.814 3.43576 157.289 4.28952C157.763 5.13499 158 6.03848 158 7V14H154.686V7C154.686 6.38662 154.535 5.81054 154.233 5.27176C153.931 4.73298 153.522 4.26465 153.004 3.86679C152.487 3.46063 151.878 3.1415 151.178 2.90941C150.488 2.66903 149.744 2.5447 148.946 2.53641H139.844V14Z" fill="#F0EFEF"/>
</svg>
